<svg id="visual" viewBox="0 0 900 600" width="900" height="600" xmlns="http://www.w3.org/2000/svg" xmlns:xlink="http://www.w3.org/1999/xlink" version="1.1"><rect x="0" y="0" width="900" height="600" fill="#001220"></rect><defs><linearGradient id="grad1_0" x1="33.3%" y1="100%" x2="100%" y2="0%"><stop offset="20%" stop-color="#001220" stop-opacity="1"></stop><stop offset="80%" stop-color="#001220" stop-opacity="1"></stop></linearGradient></defs><defs><linearGradient id="grad2_0" x1="0%" y1="100%" x2="66.7%" y2="0%"><stop offset="20%" stop-color="#001220" stop-opacity="1"></stop><stop offset="80%" stop-color="#001220" stop-opacity="1"></stop></linearGradient></defs><g transform="translate(900, 600)"><path d="M-216.3 0C-212.7 -29.5 -209.1 -59 -194.9 -80.7C-180.8 -102.5 -156.2 -116.4 -137.2 -137.2C-118.2 -157.9 -104.7 -185.5 -82.8 -199.9C-60.9 -214.2 -30.4 -215.3 0 -216.3L0 0Z" fill="#FBAE3C"></path></g><g transform="translate(0, 0)"><path d="M216.3 0C215 30 213.7 59.9 199.9 82.8C186 105.6 159.7 121.4 137.9 137.9C116.1 154.4 98.8 171.6 76.5 184.8C54.3 198 27.2 207.2 0 216.3L0 0Z" fill="#FBAE3C"></path></g></svg>